<?xml version="1.0" encoding="utf-8"?>
<!-- Generator: Adobe Illustrator 17.1.0, SVG Export Plug-In . SVG Version: 6.00 Build 0)  -->
<!DOCTYPE svg PUBLIC "-//W3C//DTD SVG 1.1//EN" "http://www.w3.org/Graphics/SVG/1.1/DTD/svg11.dtd">
<svg version="1.1" id="Calque_1" xmlns="http://www.w3.org/2000/svg" xmlns:xlink="http://www.w3.org/1999/xlink" x="0px" y="0px"
	 viewBox="0 131.364 960 295.03" enable-background="new 0 131.364 960 295.03" xml:space="preserve">
<g>
	<g>
		<g>
			<g>
				<path fill="#FFFFFF" d="M632.525,264.154c-4.357-14.338-13.224-27.028-25.4-36.095c-10.715-7.973-23.418-12.71-36.742-13.704
					c-1.521-0.113-3.042-0.22-4.824-0.247c-0.147-0.013-0.307-0.02-0.474-0.02l-0.467-0.02c-0.234-0.013-0.467-0.027-0.707-0.027
					c-13.484,0-26.561,4.09-37.789,11.816c-19.762,13.137-31.565,35.114-31.565,58.779c0,25.426,13.804,48.991,36.008,61.481
					c8.393,4.857,17.52,7.779,27.108,8.673c2.522,0.267,5.031,0.4,7.432,0.4c14.264,0,27.915-4.31,39.704-12.39
					c0.447,6.765,5.638,12.136,12.029,12.136h5.231c6.679,0,12.116-5.858,12.116-13.05v-71.242
					C634.193,268.271,633.553,266.076,632.525,264.154z M563.912,326.803c-22.664,0-41.105-19.061-41.105-42.5
					c0-22.738,18.828-41.939,41.105-41.939c20.282,0,37.823,15.699,40.818,36.308v11.689
					C601.688,311.144,584.168,326.803,563.912,326.803z"/>
				<path fill="#FFFFFF" d="M928.469,224.824c-11.255-7.739-24.332-11.829-37.816-11.829c-0.24,0-0.474,0.013-0.707,0.027
					l-0.494,0.02c-0.147,0-0.294,0.007-0.674,0.033c-1.555,0.013-3.076,0.12-4.597,0.234c-12.43,0.921-24.306,5.151-34.554,12.189
					v-81.437c0-6.999-5.224-12.697-11.642-12.697h-5.925c-6.418,0-11.636,5.698-11.636,12.697v126.258
					c0,0.113-0.033,0.22-0.033,0.327v71.249c0,7.199,5.438,13.05,12.116,13.05h5.224c6.685,0,12.116-5.858,12.116-13.05v-0.073
					c11.762,8.033,25.373,12.316,39.597,12.316c2.422,0,4.924-0.133,7.412-0.394c9.601-0.894,18.721-3.81,27.114-8.667
					c22.217-12.503,36.021-36.061,36.021-61.488C960,259.924,948.204,237.947,928.469,224.824z M890.653,325.749
					c-20.256,0-37.769-15.652-40.798-36.221v-11.863c3.076-20.743,20.569-36.355,40.798-36.355
					c22.664,0,41.105,18.815,41.105,41.946C931.758,306.687,913.317,325.749,890.653,325.749z"/>
				<path fill="#FFFFFF" d="M632.525,264.154c-4.357-14.338-13.224-27.028-25.4-36.095c-10.715-7.973-23.418-12.71-36.742-13.704
					c-1.521-0.113-3.042-0.22-4.824-0.247c-0.147-0.013-0.307-0.02-0.474-0.02l-0.467-0.02c-0.234-0.013-0.467-0.027-0.707-0.027
					c-13.484,0-26.561,4.09-37.789,11.816c-19.762,13.137-31.565,35.114-31.565,58.779c0,25.426,13.804,48.991,36.008,61.481
					c8.393,4.857,17.52,7.779,27.108,8.673c2.522,0.267,5.031,0.4,7.432,0.4c14.264,0,27.915-4.31,39.704-12.39
					c0.447,6.765,5.638,12.136,12.029,12.136h5.231c6.679,0,12.116-5.858,12.116-13.05v-71.242
					C634.193,268.271,633.553,266.076,632.525,264.154z M563.912,326.803c-22.664,0-41.105-19.061-41.105-42.5
					c0-22.738,18.828-41.939,41.105-41.939c20.282,0,37.823,15.699,40.818,36.308v11.689
					C601.688,311.144,584.168,326.803,563.912,326.803z"/>
				<path fill="#FFFFFF" d="M792.456,264.154c-4.357-14.338-13.224-27.028-25.4-36.095c-10.715-7.973-23.418-12.71-36.742-13.704
					c-1.521-0.113-3.042-0.22-4.824-0.247c-0.147-0.013-0.307-0.02-0.474-0.02l-0.467-0.02c-0.234-0.013-0.467-0.027-0.707-0.027
					c-13.484,0-26.561,4.09-37.789,11.816c-19.762,13.137-31.565,35.114-31.565,58.779c0,25.426,13.804,48.991,36.008,61.481
					c8.393,4.857,17.52,7.779,27.108,8.673c2.529,0.267,5.031,0.4,7.432,0.4c14.264,0,27.915-4.31,39.704-12.39
					c0.447,6.765,5.638,12.136,12.029,12.136h5.231c6.679,0,12.116-5.858,12.116-13.05v-71.242
					C794.124,268.271,793.49,266.076,792.456,264.154z M723.843,326.803c-22.664,0-41.105-19.061-41.105-42.5
					c0-22.738,18.828-41.939,41.105-41.939c20.282,0,37.823,15.699,40.818,36.308v11.689
					C761.619,311.144,744.099,326.803,723.843,326.803z"/>
				<g>
					<path fill="#FFFFFF" d="M455.054,190.304c8.5,0,15.412-6.912,15.412-15.412c0-8.353-7.059-15.412-15.412-15.412
						c-8.5,0-15.419,6.912-15.419,15.412C439.642,183.538,446.414,190.304,455.054,190.304z"/>
					<path fill="#FFFFFF" d="M470.453,228.206c0-7.486-5.644-13.584-12.576-13.584h-5.638c-6.932,0-12.576,6.091-12.576,13.584
						v12.683c-0.007,0.04-0.027,0.08-0.027,0.12v119.019c0,20.342-21.257,35.541-40.271,35.541h-0.867
						c-7.606,0-13.804,5.691-13.804,12.683v5.464c0,6.992,6.191,12.677,13.804,12.677h0.867c0.033,0,0.067,0,0.093,0
						c37.416-2.415,70.995-30.39,70.995-66.358s0-119.019,0-119.019c0-0.02-0.013-0.04-0.013-0.067L470.453,228.206L470.453,228.206
						z"/>
				</g>
			</g>
		</g>
	</g>
	<g>
		<path fill="#FFFFFF" d="M18.294,383.714c-9.587-11.322-13.117-25.62-13.437-27.755c-0.24-1.635-1.655-1.795-2.816-1.608
			c-1.141,0.173-2.202,1.141-2.028,2.282c0.614,3.976,5.531,18.501,15.078,29.777c0.414,0.487,1.007,0.741,1.595,0.741
			c0.48,0,0.961-0.16,1.354-0.494C18.928,385.916,19.041,384.595,18.294,383.714z"/>
		<path fill="#FFFFFF" d="M21.757,388.758c-0.647-0.901-1.942-1.067-2.909-0.367c-0.841,0.881-0.894,2.022-0.247,2.916l3.963,3.81
			c0.967,0.654,1.748,0.854,2.582-0.027c0.761-0.794,0.44-1.514-0.16-2.442L21.757,388.758z"/>
		<path fill="#FFFFFF" d="M148.709,144.815c-85.12,2.682-134.425,41.552-141.91,141.91c-2.195,77.76,24.779,133.39,141.91,141.91
			c114.422,0.274,141.91-63.536,141.91-141.91C290.626,196.829,247.386,144.815,148.709,144.815z M138.094,218.485
			c0.254-0.093,0.534,0.207,0.474,0.487c-1.728,7.613-19.182,64.163-72.817,86.247C65.744,305.22,81.023,239.082,138.094,218.485z
			 M79.582,372.959c32.625-109.158,135.432-159.384,135.432-159.384C176.684,320.852,79.582,372.959,79.582,372.959z
			 M159.617,355.185c23.545-62.328,68.066-70.034,68.066-70.034C213.926,349.981,159.617,355.185,159.617,355.185z M272.218,243.285
			c-0.494-2.382-1.348-4.997-2.268-7.913c-0.374-1.781-0.981-3.209-1.588-4.637c-0.667-1.721-0.981-3.209-1.948-4.87l-1.888-4.577
			c-0.967-1.661-1.575-3.089-2.542-4.744c-0.667-1.721-1.635-3.383-2.602-5.051l-2.902-4.977c-1.201-1.308-2.168-2.969-3.436-4.564
			c-1.268-1.595-2.235-3.263-3.503-4.864c-2.762-2.836-4.997-6.098-8-8.573c-2.702-2.542-5.704-5.024-8.94-7.146
			c-6.178-4.303-12.403-7.346-17.427-9.094c-5.444-2.282-10.281-3.136-13.504-3.703c-1.615-0.287-2.869-0.34-3.162-0.274
			c-0.36-0.24-1.254-0.053-1.254-0.053c-1.488,0.307-2.989-0.927-3.296-2.415c-0.013-1.555,0.927-2.989,2.715-3.356l1.254,0.047
			c1.254,0.047,2.862,0.327,4.77,0.554c3.523,0.507,8.48,1.955,14.284,4.477c5.504,2.569,11.796,5.911,18.034,10.515
			c3.296,2.415,6.065,5.257,8.834,8.093c2.702,2.542,5.297,6.038,7.826,9.241c1.268,1.595,2.228,3.256,3.496,4.857
			c1.268,1.595,2.295,3.563,3.263,5.217c0.901,1.361,1.875,3.022,2.902,4.984c0.674,1.728,1.641,3.383,2.308,5.111
			c0.967,1.661,1.641,3.383,2.308,5.111l1.948,4.87c0.607,1.428,0.981,3.209,1.588,4.637c0.314,1.494,0.981,3.216,1.354,4.997
			c0.62,2.976,1.474,5.591,1.975,7.973l1.241,5.951c0.387,3.329,0.821,5.418,0.821,5.418l-1.114-5.357
			C273.386,247.395,272.946,245.306,272.218,243.285z"/>
	</g>
</g>
<g>
	<g>
		<g>
			<path fill="#3562AB" d="M228.271,284.363c0,0-44.815,8.827-68.066,70.034C160.205,354.398,191.042,308.556,228.271,284.363z"/>
		</g>
		<g>
			<path fill="#3562AB" d="M215.601,212.788c0,0-100.805,47.637-135.432,159.384C80.169,372.172,128.78,277.425,215.601,212.788z"/>
		</g>
		<g>
			<g>
				<path fill="#3562AB" d="M138.681,217.692c0,0-52.101,14.905-72.35,86.734C66.332,304.432,94.847,250.39,138.681,217.692z"/>
			</g>
		</g>
	</g>
</g>
</svg>
